<svg width="736" height="736" viewBox="0 0 736 736" fill="none" xmlns="http://www.w3.org/2000/svg">
<rect width="736" height="736" rx="28" fill="#55D9CA"/>
<g clip-path="url(#clip0_9_200)">
<path d="M367.5 139C485.413 139 581 234.587 581 352.5C581 470.413 485.413 566 367.5 566C249.587 566 154 470.413 154 352.5C154 234.587 249.587 139 367.5 139ZM326.533 228.024H273.749V259.537H306.838V444.675H273.749V476.188H326.533V500.611H358.046V476.188H380.893V500.611H412.406V475.886C422.574 474.997 431.995 472.144 440.669 467.325C451.423 461.298 459.99 453.085 466.372 442.686C472.753 432.287 475.944 420.469 475.944 407.234C475.944 400.971 475.294 394.353 473.994 387.381C472.812 380.409 470.744 373.673 467.79 367.173C464.836 360.674 460.818 355.001 455.736 350.156C450.773 345.193 444.51 341.766 436.947 339.875C442.501 337.866 447.228 334.439 451.127 329.594C455.027 324.749 458.041 319.136 460.168 312.754C462.295 306.373 463.358 299.873 463.358 293.256C463.358 279.666 460.286 268.026 454.141 258.335C448.114 248.527 439.901 241.023 429.502 235.823C424.141 233.113 418.441 231.109 412.406 229.812V193.36H380.893V228.024H358.046V193.36H326.533V228.024ZM401.849 357.601C409.412 357.601 416.266 359.61 422.411 363.628C428.674 367.646 433.638 372.964 437.301 379.581C440.964 386.081 442.796 392.994 442.796 400.321C442.796 408.711 440.964 416.274 437.301 423.01C433.638 429.628 428.674 434.827 422.411 438.609C416.266 442.391 409.412 444.281 401.849 444.281H343.708V357.601H401.849ZM391.036 260.108C400.726 260.108 409.058 262.885 416.03 268.439C423.002 273.875 426.488 282.088 426.488 293.078C426.488 303.36 423.002 311.454 416.03 317.363C409.058 323.272 400.726 326.226 391.036 326.226H343.708V260.108H391.036Z" fill="#263582"/>
</g>
<defs>
<clipPath id="clip0_9_200">
<rect width="427" height="427" fill="white" transform="translate(154 139)"/>
</clipPath>
</defs>
</svg>
